<svg width="166" height="36" viewBox="0 0 166 36" fill="none" xmlns="http://www.w3.org/2000/svg">
<path fill-rule="evenodd" clip-rule="evenodd" d="M77.7492 31.3408C80.8421 34.0823 85.3762 35.453 91.3512 35.453C97.3263 35.453 101.843 34.0823 104.901 31.3408C107.994 28.5993 109.54 24.1356 109.54 17.9496C109.54 11.7636 107.994 7.29992 104.901 4.55842C101.843 1.81692 97.3263 0.446167 91.3512 0.446167C85.3762 0.446167 80.8421 1.81692 77.7492 4.55842C74.6913 7.29992 73.1624 11.7636 73.1624 17.9496C73.1624 24.1356 74.6913 28.5993 77.7492 31.3408ZM95.3053 23.169C94.5321 24.1531 93.214 24.6452 91.3512 24.6452C89.4884 24.6452 88.1528 24.1531 87.3444 23.169C86.5712 22.1497 86.1846 20.4099 86.1846 17.9496C86.1846 15.4893 86.5712 13.7671 87.3444 12.7829C88.1528 11.7636 89.4884 11.254 91.3512 11.254C93.214 11.254 94.5321 11.7636 95.3053 12.7829C96.1137 13.7671 96.5179 15.4893 96.5179 17.9496C96.5179 20.4099 96.1137 22.1497 95.3053 23.169ZM60.2853 0.973378H41.2002V10.9572H53.9587V10.9377H57.2802C58.2643 10.9377 58.9848 11.1661 59.4417 11.6231C59.9338 12.0448 60.1798 12.7302 60.1798 13.6792C60.1798 15.4366 59.143 16.3152 57.0693 16.3152H53.9587V16.3H41.2002V34.9258H53.9587V26.2796H54.4859C54.8726 26.2796 55.1713 26.3674 55.3822 26.5432C55.5931 26.6837 55.7864 26.9649 55.9621 27.3867L59.2836 34.9258H72.5693L68.5625 25.6996C68.2813 24.9967 67.8068 24.4167 67.139 23.9598C68.9315 22.7648 70.3726 21.3062 71.4622 19.584C72.5869 17.8266 73.1492 15.8583 73.1492 13.6792C73.1492 9.88326 72.0421 6.82543 69.8278 4.5057C67.6487 2.15082 64.4678 0.973378 60.2853 0.973378ZM122.077 35.453C119.652 35.453 117.332 35.2422 115.118 34.8204C112.904 34.3986 111.059 33.8187 109.582 33.0806V23.538C111.27 24.3464 113.132 25.0142 115.171 25.5415C117.245 26.0687 119.09 26.3323 120.707 26.3323C121.761 26.3323 122.587 26.2093 123.185 25.9632C123.782 25.682 124.081 25.2954 124.081 24.8034C124.081 24.3816 123.835 24.0477 123.343 23.8017C122.851 23.5205 121.937 23.1514 120.601 22.6945C119.055 22.1673 118.176 21.8685 117.965 21.7983C115.716 20.9547 113.976 20.076 112.746 19.1622C111.516 18.2484 110.619 17.1588 110.057 15.8935C109.53 14.6282 109.266 13.0114 109.266 11.0431C109.266 7.45809 110.496 4.80445 112.957 3.08223C115.452 1.32485 119.195 0.446167 124.186 0.446167C125.838 0.446167 127.754 0.621904 129.933 0.973378C132.112 1.28971 133.922 1.65875 135.363 2.08052V11.6758C132.024 10.305 129.019 9.61965 126.348 9.61965C123.641 9.61965 122.288 10.059 122.288 10.9377C122.288 11.2892 122.534 11.5879 123.026 11.8339C123.518 12.0448 124.503 12.3612 125.979 12.7829L127.35 13.152C130.056 13.8901 132.112 14.8039 133.518 15.8935C134.959 16.9479 135.925 18.1781 136.418 19.584C136.945 20.9547 137.208 22.6769 137.208 24.7506C137.208 28.0545 135.908 30.673 133.307 32.6061C130.741 34.5041 126.998 35.453 122.077 35.453ZM143.293 34.8204C145.507 35.2422 147.827 35.453 150.252 35.453C155.173 35.453 158.916 34.5041 161.482 32.6061C164.083 30.673 165.383 28.0545 165.383 24.7506C165.383 22.6769 165.12 20.9547 164.592 19.584C164.1 18.1781 163.134 16.9479 161.693 15.8935C160.287 14.8039 158.231 13.8901 155.524 13.152L154.154 12.7829C152.677 12.3612 151.693 12.0448 151.201 11.8339C150.709 11.5879 150.463 11.2892 150.463 10.9377C150.463 10.059 151.816 9.61965 154.523 9.61965C157.194 9.61965 160.199 10.305 163.538 11.6758V2.08052C162.097 1.65875 160.287 1.28971 158.108 0.973378C155.929 0.621904 154.013 0.446167 152.361 0.446167C147.37 0.446167 143.627 1.32485 141.132 3.08223C138.671 4.80445 137.441 7.45809 137.441 11.0431C137.441 13.0114 137.705 14.6282 138.232 15.8935C138.794 17.1588 139.691 18.2484 140.921 19.1622C142.151 20.076 143.891 20.9547 146.14 21.7983C146.351 21.8685 147.23 22.1673 148.776 22.6945C150.112 23.1514 151.026 23.5205 151.518 23.8017C152.01 24.0477 152.256 24.3816 152.256 24.8034C152.256 25.2954 151.957 25.682 151.359 25.9632C150.762 26.2093 149.936 26.3323 148.882 26.3323C147.265 26.3323 145.42 26.0687 143.346 25.5415C141.307 25.0142 139.444 24.3464 137.757 23.538V33.0806C139.234 33.8187 141.079 34.3986 143.293 34.8204Z" fill="#F2F2F2"/>
<path fill-rule="evenodd" clip-rule="evenodd" d="M35.049 0.446167H0.630005V34.8652H35.049V0.446167ZM9.24645 16.8204C11.0094 16.8204 12.4385 15.3913 12.4385 13.6284C12.4385 11.8655 11.0094 10.4364 9.24645 10.4364C7.48354 10.4364 6.05442 11.8655 6.05442 13.6284C6.05442 15.3913 7.48354 16.8204 9.24645 16.8204Z" fill="#F58634"/>
</svg>
