<svg width="166" height="36" viewBox="0 0 166 36" fill="none" xmlns="http://www.w3.org/2000/svg">
<path fill-rule="evenodd" clip-rule="evenodd" d="M77.7492 31.6644C80.8421 34.4059 85.3762 35.7766 91.3512 35.7766C97.3263 35.7766 101.843 34.4059 104.901 31.6644C107.994 28.9229 109.54 24.4592 109.54 18.2732C109.54 12.0873 107.994 7.62353 104.901 4.88203C101.843 2.14053 97.3263 0.769775 91.3512 0.769775C85.3762 0.769775 80.8421 2.14053 77.7492 4.88203C74.6913 7.62353 73.1624 12.0873 73.1624 18.2732C73.1624 24.4592 74.6913 28.9229 77.7492 31.6644ZM95.3053 23.4926C94.5321 24.4767 93.214 24.9688 91.3512 24.9688C89.4884 24.9688 88.1528 24.4767 87.3444 23.4926C86.5712 22.4733 86.1846 20.7335 86.1846 18.2732C86.1846 15.8129 86.5712 14.0907 87.3444 13.1065C88.1528 12.0873 89.4884 11.5776 91.3512 11.5776C93.214 11.5776 94.5321 12.0873 95.3053 13.1065C96.1137 14.0907 96.5179 15.8129 96.5179 18.2732C96.5179 20.7335 96.1137 22.4733 95.3053 23.4926ZM60.2853 1.29699H41.2002V11.2808H53.9587V11.2613H57.2802C58.2643 11.2613 58.9848 11.4898 59.4417 11.9467C59.9338 12.3684 60.1798 13.0538 60.1798 14.0028C60.1798 15.7602 59.143 16.6389 57.0693 16.6389H53.9587V16.6237H41.2002V35.2494H53.9587V26.6032H54.4859C54.8726 26.6032 55.1713 26.691 55.3822 26.8668C55.5931 27.0074 55.7864 27.2885 55.9621 27.7103L59.2836 35.2494H72.5693L68.5625 26.0232C68.2813 25.3203 67.8068 24.7403 67.139 24.2834C68.9315 23.0884 70.3726 21.6298 71.4622 19.9076C72.5869 18.1502 73.1492 16.1819 73.1492 14.0028C73.1492 10.2069 72.0421 7.14904 69.8278 4.82931C67.6487 2.47443 64.4678 1.29699 60.2853 1.29699ZM122.077 35.7766C119.652 35.7766 117.332 35.5658 115.118 35.144C112.904 34.7222 111.059 34.1423 109.582 33.4042V23.8617C111.27 24.67 113.132 25.3379 115.171 25.8651C117.245 26.3923 119.09 26.6559 120.707 26.6559C121.761 26.6559 122.587 26.5329 123.185 26.2868C123.782 26.0057 124.081 25.619 124.081 25.127C124.081 24.7052 123.835 24.3713 123.343 24.1253C122.851 23.8441 121.937 23.475 120.601 23.0181C119.055 22.4909 118.176 22.1922 117.965 22.1219C115.716 21.2783 113.976 20.3996 112.746 19.4858C111.516 18.572 110.619 17.4824 110.057 16.2171C109.53 14.9518 109.266 13.335 109.266 11.3667C109.266 7.78169 110.496 5.12806 112.957 3.40584C115.452 1.64846 119.195 0.769775 124.186 0.769775C125.838 0.769775 127.754 0.945513 129.933 1.29699C132.112 1.61331 133.922 1.98236 135.363 2.40413V11.9994C132.024 10.6286 129.019 9.94326 126.348 9.94326C123.641 9.94326 122.288 10.3826 122.288 11.2613C122.288 11.6128 122.534 11.9115 123.026 12.1576C123.518 12.3684 124.503 12.6848 125.979 13.1065L127.35 13.4756C130.056 14.2137 132.112 15.1275 133.518 16.2171C134.959 17.2715 135.925 18.5017 136.418 19.9076C136.945 21.2783 137.208 23.0005 137.208 25.0742C137.208 28.3781 135.908 30.9966 133.307 32.9297C130.741 34.8277 126.998 35.7766 122.077 35.7766ZM143.293 35.144C145.507 35.5658 147.827 35.7766 150.252 35.7766C155.173 35.7766 158.916 34.8277 161.482 32.9297C164.083 30.9966 165.383 28.3781 165.383 25.0742C165.383 23.0005 165.12 21.2783 164.592 19.9076C164.1 18.5017 163.134 17.2715 161.693 16.2171C160.287 15.1275 158.231 14.2137 155.524 13.4756L154.154 13.1065C152.677 12.6848 151.693 12.3684 151.201 12.1576C150.709 11.9115 150.463 11.6128 150.463 11.2613C150.463 10.3826 151.816 9.94326 154.523 9.94326C157.194 9.94326 160.199 10.6286 163.538 11.9994V2.40413C162.097 1.98236 160.287 1.61331 158.108 1.29699C155.929 0.945513 154.013 0.769775 152.361 0.769775C147.37 0.769775 143.627 1.64846 141.132 3.40584C138.671 5.12806 137.441 7.78169 137.441 11.3667C137.441 13.335 137.705 14.9518 138.232 16.2171C138.794 17.4824 139.691 18.572 140.921 19.4858C142.151 20.3996 143.891 21.2783 146.14 22.1219C146.351 22.1922 147.23 22.4909 148.776 23.0181C150.112 23.475 151.026 23.8441 151.518 24.1253C152.01 24.3713 152.256 24.7052 152.256 25.127C152.256 25.619 151.957 26.0057 151.359 26.2868C150.762 26.5329 149.936 26.6559 148.882 26.6559C147.265 26.6559 145.42 26.3923 143.346 25.8651C141.307 25.3379 139.444 24.67 137.757 23.8617V33.4042C139.234 34.1423 141.079 34.7222 143.293 35.144Z" fill="#14385F"/>
<path fill-rule="evenodd" clip-rule="evenodd" d="M35.049 0.769775H0.630005V35.1888H35.049V0.769775ZM9.24645 17.1441C11.0094 17.1441 12.4385 15.7149 12.4385 13.952C12.4385 12.1891 11.0094 10.76 9.24645 10.76C7.48354 10.76 6.05442 12.1891 6.05442 13.952C6.05442 15.7149 7.48354 17.1441 9.24645 17.1441Z" fill="#F58634"/>
</svg>
